<svg xmlns="http://www.w3.org/2000/svg" xmlns:xlink="http://www.w3.org/1999/xlink" width="90" height="73" version="1.1" viewBox="0 0 90 73"><title>编组 2</title><desc>Created with Sketch.</desc><defs><linearGradient id="linearGradient-1" x1="51.945%" x2="52.633%" y1="48.748%" y2="51.372%"><stop offset="0%" stop-color="#FBFCFD"/><stop offset="100%" stop-color="#F0F2F5"/></linearGradient><linearGradient id="linearGradient-2" x1="50%" x2="50%" y1="1.176%" y2="94.766%"><stop offset="0%" stop-color="#EBEDF0" stop-opacity=".992"/><stop offset="100%" stop-color="#E1E3E6"/></linearGradient><linearGradient id="linearGradient-3" x1="50%" x2="50%" y1="0%" y2="98.849%"><stop offset="0%" stop-color="#FFF"/><stop offset="100%" stop-color="#F2F4F7"/></linearGradient><linearGradient id="linearGradient-4" x1="50%" x2="50%" y1="0%" y2="99.208%"><stop offset="0%" stop-color="#EDEFF2"/><stop offset="100%" stop-color="#E8EAED"/></linearGradient><linearGradient id="linearGradient-5" x1="50%" x2="50%" y1="1.176%" y2="94.766%"><stop offset="0%" stop-color="#E6E8EB" stop-opacity=".992"/><stop offset="100%" stop-color="#D4D6D9"/></linearGradient></defs><g id="notebook版本管理" fill="none" fill-rule="evenodd" stroke="none" stroke-width="1"><g id="差异对比-交互说明" transform="translate(-2692.000000, -951.000000)"><g id="编组-2" transform="translate(2681.000000, 930.000000)"><path id="Fill-1" fill="url(#linearGradient-1)" d="M24.6533854,80.6091836 C33.6213872,78.5680531 46.540879,77.6608841 55.3180722,78.1144686 C64.0952654,78.5680531 71.3481907,80.1072725 71.8768578,79.7505128 C73.6290945,78.5680531 77.3675526,78.0584446 77.1767441,78.5120291 C76.9859355,78.9656136 74.5897356,80.3823913 75.3529697,80.6091836 C76.1162039,80.8359758 83.9393544,81.7431449 87.1830997,82.4235217 C90.4268451,83.1038985 92.5054047,83.7842754 93.2217452,83.7842754 C93.9380857,83.7842754 95.0355615,82.8280445 99.7303228,83.2816291 C99.8132999,83.4551988 98.6910518,83.5180691 97.6377436,84.0488851 C96.5844355,84.5797012 95.844963,84.5432066 95.844963,84.6757057 C95.844963,84.8082048 96.4272512,84.499561 97.6377436,85.2836039 C98.8482361,86.0676468 101,86.3182147 101,86.5287179 C101,86.7392211 98.2742565,87.6328286 93.7090865,86.1812613 C92.5535374,85.8138364 89.8544194,89.0004976 77.4518638,89.9076666 C65.0493081,90.8148357 44.0603679,91.4952125 44.0603679,91.4952125 C44.0603679,91.4952125 45.326572,93.1208674 47.1619008,93.592614 C47.2646799,93.7589453 46.4338941,94.363977 42.8636211,93.6850051 C39.2933482,93.0060331 37.3820687,91.4952125 37.3820687,91.4952125 C37.3820687,91.4952125 30.3221524,91.041628 27.6508327,90.5880435 C24.979513,90.1344589 21.9265763,89.0004976 19.8276822,88.7737053 C17.7287882,88.546913 8.1883608,87.4129517 11.8137232,84.9182367 C11.8137232,84.9182367 15.6853837,82.650314 24.6533854,80.6091836 Z"/><path id="形状结合" fill="#C4C6CC" d="M22,82 L22,87 L27,87 L27,88 L21,88 L21,82 L22,82 Z"/><path id="形状结合备份" fill="#C4C6CC" d="M21,21 L21,26 L26,26 L26,27 L20,27 L20,21 L21,21 Z" transform="translate(23.000000, 24.000000) rotate(-270.000000) translate(-23.000000, -24.000000)"/><path id="形状结合备份-2" fill="#C4C6CC" d="M69,21 L69,26 L74,26 L74,27 L68,27 L68,21 L69,21 Z" transform="translate(71.000000, 24.000000) rotate(-180.000000) translate(-71.000000, -24.000000)"/><rect id="矩形-2" width="46" height="58" x="24" y="25" fill="url(#linearGradient-2)" rx="1"/><rect id="矩形" width="38" height="50" x="28" y="29" fill="url(#linearGradient-3)"/><rect id="矩形" width="22" height="1" x="36" y="31" fill="#DCDEE0"/><rect id="矩形" width="38" height="1" x="28" y="79" fill="#D1D3D6"/><rect id="矩形-3" width="22" height="8" x="36" y="23" fill="url(#linearGradient-4)"/><path id="形状结合" fill="#D1D3D6" d="M70,59.528 L70,82 C70,82.5522847 69.5522847,83 69,83 L56.701,82.999 L70,59.528 Z"/><path id="形状结合" fill="#E5E7EC" d="M66,66.559 L66,79 L58.951,79 L66,66.559 Z"/><path id="三角形" fill="url(#linearGradient-5)" d="M73.3700222,58.5353333 L74.1503003,59.9122947 L74.1503003,59.9122947 L88.6539595,85.5069874 C88.9262429,85.9874874 88.7574499,86.5977389 88.2769499,86.8700222 C88.1266035,86.9552185 87.956745,87 87.7839374,87 L57.2160626,87 C56.6637779,87 56.2160626,86.5522847 56.2160626,86 C56.2160626,85.8271924 56.2608441,85.6573339 56.3460405,85.5069874 L71.6299778,58.5353333 C71.9022611,58.0548333 72.5125126,57.8860403 72.9930126,58.1583237 C73.1504858,58.2475585 73.2807873,58.37786 73.3700222,58.5353333 Z"/><path id="!" fill="#979BA5" fill-rule="nonzero" d="M74.1015625,70.8984375 L73.7890625,79.2734375 L71.7421875,79.2734375 L71.4453125,70.8984375 L74.1015625,70.8984375 Z M71.3046875,81.84375 C71.3046875,81.453123 71.4479152,81.1328137 71.734375,80.8828125 C72.0208348,80.6328113 72.3723938,80.5078125 72.7890625,80.5078125 C73.2109396,80.5078125 73.5611965,80.6341133 73.8398438,80.8867188 C74.118491,81.1393242 74.2578125,81.4583314 74.2578125,81.84375 C74.2578125,82.2187519 74.1223972,82.536457 73.8515625,82.796875 C73.5807278,83.057293 73.2552102,83.1875 72.875,83.1875 C72.3958309,83.1875 72.0143243,83.057293 71.7304688,82.796875 C71.4466132,82.536457 71.3046875,82.2187519 71.3046875,81.84375 Z"/><g id="编组-3" fill="#C4C6CC" transform="translate(43.000000, 44.000000)"><rect id="矩形" width="2" height="1" x="0" y="0"/><rect id="矩形备份" width="2" height="1" x="4" y="0"/><rect id="矩形备份-2" width="2" height="1" x="8" y="0"/><rect id="矩形备份-3" width="2" height="1" x="12" y="0"/><rect id="矩形备份-4" width="2" height="1" x="16" y="0"/></g><g id="编组-3" fill="#C4C6CC" transform="translate(55.000000, 52.000000)"><rect id="矩形" width="2" height="1" x="4" y="0"/><rect id="矩形备份-5" width="2" height="1" x="0" y="0"/><rect id="矩形备份" width="2" height="1" x="8" y="0"/><rect id="矩形备份-2" width="2" height="1" x="12" y="0"/><rect id="矩形备份-3" width="2" height="1" x="16" y="0"/><rect id="矩形备份-4" width="2" height="1" x="20" y="0"/></g></g></g></g></svg>