<svg xmlns="http://www.w3.org/2000/svg" xmlns:xlink="http://www.w3.org/1999/xlink" id="图层_3" x="0" y="0" version="1.1" viewBox="0 0 180 140" xml:space="preserve" style="enable-background:new 0 0 180 140"><style type="text/css">.st0{fill:url(#Fill-1_2_)}.st1{fill:url(#路径-3_2_)}.st2{fill:url(#形状结合_1_)}.st3{fill:#c4c6cc}</style><g id="页面-1_1_"><g id="画板_1_" transform="translate(-264.000000, -328.000000)"><g id="内容为空" transform="translate(264.000000, 327.000000)"><linearGradient id="Fill-1_2_" x1="262.47" x2="262.47" y1="-74.515" y2="-73.284" gradientTransform="matrix(163.086 0 0 28.8496 -42709.668 2232.9421)" gradientUnits="userSpaceOnUse"><stop offset="0" style="stop-color:#fbfcfd"/><stop offset="1" style="stop-color:#f0f2f5"/></linearGradient><path id="Fill-1_1_" d="M38.5,93.9c16.3-3.7,39.7-5.3,55.6-4.5s29.1,3.6,30,2.9c3.2-2.1,10-3,9.6-2.2 c-0.3,0.8-4.7,3.4-3.3,3.8c1.4,0.4,15.6,2,21.5,3.3c5.9,1.2,9.7,2.4,11,2.4s3.3-1.7,11.8-0.9c0.2,0.3-1.9,0.4-3.8,1.4 s-3.3,0.9-3.3,1.1s1.1-0.3,3.3,1.1c2.2,1.4,6.1,1.9,6.1,2.2s-4.9,2-13.2-0.6c-2.1-0.7-7,5.1-29.5,6.7 c-22.5,1.6-60.5,2.9-60.5,2.9s2.3,2.9,5.6,3.8c0.2,0.3-1.3,1.4-7.8,0.2s-9.9-3.9-9.9-3.9s-12.8-0.8-17.6-1.6s-10.4-2.9-14.2-3.3 c-3.8-0.4-21.1-2.4-14.5-6.9C15.2,101.7,22.2,97.6,38.5,93.9z" class="st0"/><linearGradient id="路径-3_2_" x1="261.635" x2="261.635" y1="-72.816" y2="-71.879" gradientTransform="matrix(105.6 0 0 56.3 -27538.1719 4131.8213)" gradientUnits="userSpaceOnUse"><stop offset="0" style="stop-color:#e6e8eb;stop-opacity:.9917"/><stop offset="1" style="stop-color:#d4d6d9"/></linearGradient><polygon id="路径-3_1_" points="37.7 66.8 61.2 31.6 119.8 31.6 143.3 66.8 143.3 87.9 37.7 87.9" class="st1"/><linearGradient id="形状结合_1_" x1="261.635" x2="261.635" y1="-73.759" y2="-72.767" gradientTransform="matrix(105.6 0 0 35.2 -27538.1719 2663.1531)" gradientUnits="userSpaceOnUse"><stop offset="0" style="stop-color:#edeff2"/><stop offset="1" style="stop-color:#e8eaed"/></linearGradient><path id="形状结合_5_" d="M63.1,102H39.7c-1.1,0-2-0.9-2-2V66.8h23.4c1.1,0,2,0.9,2,2v7.4c0,1.1,0.8,1.9,1.9,2 h0.1h50.8c1.1,0,1.9-0.8,2-1.9v-0.1v-7.4c0-1.1,0.9-2,2-2h23.4V100c0,1.1-0.9,2-2,2h-23.4H63.1z" class="st2"/><polygon id="形状结合_4_" points="32.9 98.8 32.9 106.8 40.9 106.8 40.9 108.4 31.3 108.4 31.3 98.8" class="st3"/><polygon id="形状结合备份_1_" points="140.1 106.8 148.1 106.8 148.1 98.8 149.7 98.8 149.7 108.4 140.1 108.4" class="st3"/><g id="编组-4_1_" transform="translate(91.658457, 11.926342) rotate(21.000000) translate(-91.658457, -11.926342) translate(90.158457, -0.073658)"><rect id="矩形_1_" width="3.2" height="1.6" x="18.9" y="12.7" class="st3" transform="matrix(1.090938e-05 1 -1 1.090938e-05 33.9835 -6.9387)"/><rect id="矩形备份-6" width="3.2" height="1.6" x="18.9" y="19.1" class="st3" transform="matrix(1.090938e-05 1 -1 1.090938e-05 40.3833 -0.5385)"/><rect id="矩形备份-7" width="3.2" height="1.6" x="18.9" y="25.5" class="st3" transform="matrix(1.090938e-05 1 -1 1.090938e-05 46.7833 5.8612)"/><rect id="矩形备份-8" width="3.2" height="1.6" x="18.9" y="31.9" class="st3" transform="matrix(1.090938e-05 1 -1 1.090938e-05 53.1835 12.261)"/></g><g id="编组-3_1_" transform="translate(36.136004, 27.226952) rotate(-32.000000) translate(-36.136004, -27.226952) translate(34.636004, 12.726952)"><rect id="矩形_2_" width="1.6" height="3.2" x="3" y="21.9" class="st3" transform="matrix(-1 1.075266e-05 -1.075266e-05 -1 7.6925 46.9534)"/><rect id="矩形备份-2" width="1.6" height="3.2" x="3" y="28.3" class="st3" transform="matrix(-1 1.075266e-05 -1.075266e-05 -1 7.6933 59.7534)"/><rect id="矩形备份-3" width="1.6" height="3.2" x="3" y="34.7" class="st3" transform="matrix(-1 1.075266e-05 -1.075266e-05 -1 7.6932 72.5538)"/><rect id="矩形备份-4" width="1.6" height="3.2" x="3" y="41.1" class="st3" transform="matrix(-1 1.075266e-05 -1.075266e-05 -1 7.693 85.3535)"/><rect id="矩形备份-5" width="1.6" height="3.2" x="3" y="47.5" class="st3" transform="matrix(-1 1.075266e-05 -1.075266e-05 -1 7.693 98.1534)"/></g><circle id="椭圆形_1_" cx="119.3" cy="23.6" r="1.6" class="st3"/><circle id="椭圆形备份_1_" cx="77.7" cy="49.2" r="1.6" class="st3"/></g></g></g></svg>