<svg xmlns="http://www.w3.org/2000/svg" xmlns:xlink="http://www.w3.org/1999/xlink" id="图层_1" x="0" y="0" version="1.1" viewBox="0 0 480 240" xml:space="preserve" style="enable-background:new 0 0 480 240"><style type="text/css">.st0{fill:url(#Fill-1_1_)}.st1{fill:#c4c6cc}.st2{fill:url(#矩形-2_1_)}.st3{fill:url(#矩形_6_)}.st4{fill:#dcdee0}.st5{fill:#d1d3d6}.st6{fill:url(#矩形-3_1_)}.st7{fill:#e5e7ec}.st8{fill:url(#三角形_1_)}.st9{fill:#979ba5}</style><g id="页面-1"><g id="Exception_x2F_异常提示" transform="translate(-869.000000, -2918.000000)"><g id="异常失败类" transform="translate(357.000000, 2823.000000)"><g id="异常失败类-插图" transform="translate(512.000000, 95.000000)"><g id="编组-2" transform="translate(123.000000, 33.000000)"><linearGradient id="Fill-1_1_" x1="126.57" x2="130.164" y1="134.989" y2="169.183" gradientUnits="userSpaceOnUse"><stop offset="0" style="stop-color:#fbfcfd"/><stop offset="1" style="stop-color:#f2f4f7"/></linearGradient><path id="Fill-1" d="M60,143c19.3-4.2,48.4-5.7,67.3-4.7s39.4,3.8,39.4,3.8s5.3-2.4,4.9-1.4 c-0.4,0.9-2.9,2.4-1.2,2.8c1.6,0.5,18.5,2.4,25.4,3.8c7,1.4,10.3,2.8,10.3,2.8s4.6-8,14.7-7.1c0,0.8-3.7,1.7-5,3.8 c-1.2,2.1-4,3.3-4,3.3s2.2-1.2,5.9,0.6s7.3,2.4,7.3,2.7s-1.6,4.2-15.2,1.4c-5.5-1.4-8.2,6.1-34.9,8s-71.8,3.3-71.8,3.3 s2.1,2.8,6.2,3.8c0,0-2.9,2.8-8.6,1.9c-5.7-0.9-11.9-5.7-11.9-5.7s-15.2-0.9-20.9-1.9s-12.3-3.3-16.8-3.8s-25-2.8-17.2-8 C33.8,152.4,40.7,147.3,60,143z" class="st0"/><path id="形状结合" d="M60.8,147v9.2H70v1.8H59v-11H60.8z" class="st1"/><path id="形状结合备份" d="M66,31.8h-9.2V41H55v-9.2l0,0V30h11V31.8z" class="st1"/><path id="形状结合备份-2" d="M157.2,41v-9.2H148V30h9.2l0,0h1.8v11H157.2z" class="st1"/><linearGradient id="矩形-2_1_" x1="165.773" x2="165.773" y1="-1.56" y2="-.624" gradientTransform="matrix(88 0 0 112 -14480 214)" gradientUnits="userSpaceOnUse"><stop offset="0" style="stop-color:#ebedf0;stop-opacity:.9917"/><stop offset="1" style="stop-color:#e1e3e6"/></linearGradient><path id="矩形-2" d="M65,38h86c0.6,0,1,0.4,1,1v110c0,0.6-0.4,1-1,1H65c-0.6,0-1-0.4-1-1V39 C64,38.4,64.4,38,65,38z" class="st2"/><linearGradient id="矩形_6_" x1="164.801" x2="164.801" y1="-1.814" y2="-.826" gradientTransform="matrix(73 0 0 97 -11923 221)" gradientUnits="userSpaceOnUse"><stop offset="0" style="stop-color:#fff"/><stop offset="1" style="stop-color:#f2f4f7"/></linearGradient><rect id="矩形_1_" width="73" height="97" x="71" y="45" class="st3"/><rect id="矩形_2_" width="43" height="2" x="86" y="49" class="st4"/><rect id="矩形_3_" width="73" height="2" x="71" y="140" class="st5"/><linearGradient id="矩形-3_1_" x1="160.826" x2="160.826" y1="-11.733" y2="-10.741" gradientTransform="matrix(43 0 0 15 -6808 210)" gradientUnits="userSpaceOnUse"><stop offset="0" style="stop-color:#edeff2"/><stop offset="1" style="stop-color:#e8eaed"/></linearGradient><rect id="矩形-3" width="43" height="15" x="86" y="34" class="st6"/><path id="形状结合_1_" d="M152,105v44c0,0.6-0.4,1-1,1h-24.6L152,105z" class="st5"/><path id="形状结合_2_" d="M144,119.2V140h-12L144,119.2z" class="st7"/><linearGradient id="三角形_1_" x1="163.914" x2="163.914" y1="-3.081" y2="-2.145" gradientTransform="matrix(63.1799 0 0 56.9033 -10198.1719 277.0945)" gradientUnits="userSpaceOnUse"><stop offset="0" style="stop-color:#e6e8eb;stop-opacity:.9917"/><stop offset="1" style="stop-color:#d4d6d9"/></linearGradient><path id="三角形" d="M159.7,102.1l1.5,2.6l0,0l28.1,50.3c0.5,1,0.2,2.2-0.8,2.7c-0.3,0.2-0.6,0.3-1,0.3h-59.2 c-1.1,0-2-0.9-2-2c0-0.3,0.1-0.7,0.3-1l29.6-52.9c0.5-1,1.8-1.3,2.7-0.8C159.3,101.5,159.6,101.8,159.7,102.1z" class="st8"/><path id="_x21_" d="M160.7,124l-0.6,16.4h-4.2l-0.6-16.4C155.3,124,160.7,124,160.7,124z M155,145.8 c0-0.9,0.3-1.6,0.9-2.2s1.3-0.8,2.1-0.8c0.9,0,1.6,0.3,2.1,0.8c0.6,0.6,0.8,1.3,0.8,2.1s-0.3,1.6-0.8,2.1 c-0.6,0.6-1.2,0.9-2,0.9c-1,0-1.7-0.3-2.3-0.9C155.3,147.3,155,146.6,155,145.8z" class="st9"/><g id="编组-3" transform="translate(101.000000, 74.000000)"><rect id="矩形_4_" width="3.8" height="1" class="st1"/><rect id="矩形备份" width="3.8" height="1" x="7.6" class="st1"/><rect id="矩形备份-2" width="3.8" height="1" x="15.1" class="st1"/><rect id="矩形备份-3" width="3.8" height="1" x="22.7" class="st1"/><rect id="矩形备份-4" width="3.8" height="1" x="30.2" class="st1"/></g><g id="编组-3_1_" transform="translate(124.000000, 91.000000)"><rect id="矩形_5_" width="3.9" height="1" x="7.8" class="st1"/><rect id="矩形备份-5" width="3.9" height="1" class="st1"/><rect id="矩形备份_1_" width="3.9" height="1" x="15.6" class="st1"/><rect id="矩形备份-2_1_" width="3.9" height="1" x="23.5" class="st1"/><rect id="矩形备份-3_1_" width="3.9" height="1" x="31.3" class="st1"/><rect id="矩形备份-4_1_" width="3.9" height="1" x="39.1" class="st1"/></g></g></g></g></g></g></svg>